<svg xmlns="http://www.w3.org/2000/svg" width="19.69700050354" height="19.695999145508"><path fill="#d22856" d="M9.848 0C6.34 0 2.823.628 1.546 1.878.488 2.918.134 4.752.016 5.913L0 6.078a.82.82 0 0 0 .819.82 493.34 493.34 0 0 0 3.218-.259c.03-.004.058-.008.086-.017a.82.82 0 0 0 .801-.819l.003-1.617c0-.5.407-.902.907-.902h8.027c.5 0 .907.402.907.902l.003 1.617a.82.82 0 0 0 .802.82c.027.01.056.013.085.017l3.217.26c.45 0 .822-.366.822-.82 0-.05-.018-.165-.018-.165-.118-1.16-.472-2.995-1.53-4.035C16.873.628 13.356 0 9.848 0zm0 10.67a1.64 1.64 0 1 0 0 3.281 1.64 1.64 0 1 0 0-3.281zM8.616 6.975V5.95c0-.567-.46-1.026-1.025-1.026s-1.024.46-1.024 1.026v1.024L1.03 12.888c-.382.376-.62.894-.62 1.47v1.646a1.64 1.64 0 0 0 1.641 1.643h.41v1.023c0 .568.46 1.026 1.026 1.026s1.024-.458 1.024-1.026v-1.023h10.67v1.023c0 .568.46 1.026 1.025 1.026s1.026-.458 1.026-1.026v-1.023h.41a1.64 1.64 0 0 0 1.64-1.643v-1.646c0-.576-.236-1.094-.618-1.47L13.13 6.975V5.95c0-.567-.46-1.026-1.024-1.026s-1.027.46-1.027 1.026v1.024H8.616zm1.232 2.053a3.28 3.28 0 1 1 0 6.564 3.28 3.28 0 1 1 0-6.564z"/></svg>