<svg xmlns="http://www.w3.org/2000/svg" width="17.988000869751" height="13.965999603271" fill="#fff"><path d="M14.914 1.814C16.1.816 15.816 0 14.257 0H3.73c-1.56 0-1.854.816-.657 1.814l3.742 3.118c1.197.998 3.158.998 4.355 0l3.743-3.118zm-3 5.23L9.695 8.88l-.02.013a1.05 1.05 0 0 1-.235.136l-.1.048a1.18 1.18 0 0 1-.335.059c-.015.001-.02 0-.022 0a1.18 1.18 0 0 1-.335-.06c-.034-.014-.068-.033-.1-.048a1.07 1.07 0 0 1-.235-.136l-.02-.013c-.022-.012-1.02-.838-2.218-1.836L2.178 3.796C.98 2.798 0 3.257 0 4.816v6.315c0 1.56 1.275 2.835 2.835 2.835h12.318c1.56 0 2.835-1.275 2.835-2.835V4.816c0-1.56-.98-2.018-2.178-1.02l-3.897 3.248z"/></svg>