<svg xmlns="http://www.w3.org/2000/svg" width="17.5" height="14.663"><path fill="#d22856" fill-rule="evenodd" d="M11.283.153c1.736-.485 3.074.263 3.685 1.15l2.072-.69c-.004.84-.538 1.478-.883 1.727.704.166 1.343-.48 1.343-.48-.175.976-1.035 1.746-1.61 1.977-.24 6.592-3.272 10.956-10.382 10.823h-.46c-.422 0-4.3-.45-5.047-1.843 2.34.192 4.01-.412 4.835-1.15-.99-.293-2.76-.464-3.07-2.88.362.105.583.223 1.228.117C1.757 8.067.385 7.366.46 5.218c.294.32 1.1.523 1.38.46C1.115 5.443-.19 2.398.92.842c1.873 1.81 3.848 3.52 7.37 3.685.216-2.24 1.17-3.74 2.993-4.375z"/></svg>