<svg xmlns="http://www.w3.org/2000/svg" width="13" height="12" viewBox="521.939 473.064 12.545 11.99"><path fill="#d22856" d="M528.174 485.055c-.212 0-.412-.09-.552-.25l-4.862-5.572c-.53-.675-.82-1.518-.82-2.373 0-2.095 1.704-3.8 3.8-3.8a3.81 3.81 0 0 1 2.484.898c.696-.578 1.56-.898 2.463-.898 2.095 0 3.8 1.704 3.8 3.8 0 .91-.318 1.754-.896 2.38l-4.86 5.56c-.14.16-.342.252-.554.252h0zm-4.245-6.706l4.243 4.858 4.323-4.944c.34-.37.52-.86.52-1.4 0-1.285-1.045-2.33-2.33-2.33-.73 0-1.42.344-1.9.943a.76.76 0 0 1-.585.275c-.227-.003-.44-.11-.575-.294-.44-.587-1.13-.925-1.887-.925-1.285 0-2.33 1.046-2.33 2.33 0 .678.275 1.17.507 1.467.004.006.01.012.014.02z"/></svg>