<svg xmlns="http://www.w3.org/2000/svg" width="49.944999694824" height="24.006999969482" viewBox="0 0 49.945 24.007" fill="#fff"><path d="M1.137 0C.5 0 0 .428 0 1v1.98c0 .558.494 1 1.14 1H48.8c.628 0 1.138-.428 1.138-1V1c0-.558-.494-1-1.138-1H1.137zm0 10.003c-.627 0-1.137.428-1.137 1v1.98c0 .557.494 1 1.14 1H48.8c.628 0 1.138-.428 1.138-1v-1.98c0-.558-.494-1-1.138-1H1.137zm0 10.002c-.627 0-1.137.43-1.137 1.01v1.98c0 .557.494 1 1.14 1H48.8c.628 0 1.138-.428 1.138-1v-1.98c0-.558-.494-1.01-1.138-1.01H1.137z"/></svg>