<svg xmlns="http://www.w3.org/2000/svg" width="13" height="12" viewBox="521.939 473.064 12.545 11.99"><path fill="#d22856" d="M528.174 485.055a.73.73 0 01-.552-.25l-4.862-5.572a3.859 3.859 0 01-.82-2.373c0-2.095 1.704-3.8 3.8-3.8a3.81 3.81 0 012.484.898 3.847 3.847 0 012.463-.898c2.095 0 3.8 1.704 3.8 3.8 0 .91-.318 1.754-.896 2.38l-4.86 5.56a.737.737 0 01-.554.252zm-4.245-6.706l4.243 4.858 4.323-4.944c.34-.37.52-.86.52-1.4a2.332 2.332 0 00-2.33-2.33c-.73 0-1.42.344-1.9.943a.76.76 0 01-.585.275.723.723 0 01-.575-.294 2.333 2.333 0 00-1.887-.925 2.333 2.333 0 00-2.33 2.33c0 .678.275 1.17.507 1.467.004.006.01.012.014.02z"/></svg>