<svg xmlns="http://www.w3.org/2000/svg" width="46.21" height="56.753"><path fill="#fff" d="M38.593 30.15c.08 8.6 7.535 11.447 7.617 11.483-.062.202-1.2 4.073-3.927 8.072-2.365 3.457-4.82 6.9-8.688 6.973-3.8.07-5.02-2.253-9.365-2.253s-5.702 2.182-9.298 2.32c-3.733.142-6.576-3.74-8.96-7.184-4.875-7.046-8.598-19.9-3.597-28.593 2.484-4.313 6.925-7.043 11.743-7.114 3.666-.07 7.126 2.466 9.366 2.466s6.444-3.05 10.865-2.6c1.85.077 7.044.747 10.38 5.63-.27.17-6.197 3.623-6.135 10.802m-7.14-21.088c1.982-2.4 3.316-5.74 2.952-9.062-2.857.115-6.312 1.904-8.36 4.302-1.837 2.123-3.445 5.52-3.01 8.778 3.184.246 6.436-1.62 8.42-4.018"/></svg>