<svg xmlns="http://www.w3.org/2000/svg" width="146.3" height="40.375"><path d="M71.874 18.66c0-.708.58-1.288 1.256-1.288h7.18c5.087 0 8.436 2.704 8.436 7.146v.063c0 4.86-4.057 7.373-8.854 7.373h-5.475v6.825a1.29 1.29 0 0 1-1.289 1.287c-.676 0-1.256-.58-1.256-1.287l.002-20.12zm8.114 10.98c3.734 0 6.182-1.996 6.182-4.96v-.062c0-3.22-2.414-4.894-6.053-4.894h-5.7v9.917h5.57zM93.603 18.5c0-.708.58-1.288 1.255-1.288a1.29 1.29 0 0 1 1.288 1.288v20.283a1.29 1.29 0 0 1-1.288 1.287c-.676 0-1.255-.58-1.255-1.287V18.5zm9.14.032A1.28 1.28 0 0 1 104 17.276h.354c.58 0 .935.3 1.288.74l13.684 17.45V18.468c0-.676.547-1.256 1.256-1.256.676 0 1.225.58 1.225 1.256v20.35c0 .677-.48 1.2-1.158 1.2h-.13c-.548 0-.936-.32-1.318-.772L105.225 21.38v17.45a1.26 1.26 0 0 1-1.257 1.257c-.676 0-1.223-.58-1.223-1.257l-.002-20.285zm25.43-.032c0-.708.58-1.288 1.257-1.288a1.29 1.29 0 0 1 1.286 1.288v12.33l12.848-13.168c.3-.257.58-.45.998-.45.676 0 1.225.612 1.225 1.256 0 .354-.162.644-.42.9l-7.984 7.92 8.564 10.56c.225.3.354.547.354.936 0 .676-.577 1.288-1.285 1.288-.482 0-.807-.26-1.03-.58l-8.4-10.464-4.863 4.86v4.895a1.29 1.29 0 0 1-1.286 1.288c-.677 0-1.257-.58-1.257-1.288l-.006-20.286z" fill="#283645"/><path d="M98.498 9.875c-2.002 0-3.623-1.623-3.623-3.624 0 2-1.623 3.624-3.625 3.624 2.002 0 3.625 1.623 3.625 3.624 0-2 1.62-3.624 3.623-3.624zm-55.404 9.438l.73.033a2.49 2.49 0 0 0-2.136-1.22c-.877 0-1.614-.568-1.884-1.354a12.02 12.02 0 0 0-2.09.816c.062.017.122.038.188.038a2 2 0 0 1 2 2c0 .096-.015.188-.028.28a9 9 0 0 1 3.219-.593zm17.368 8.703c-.002-.01-5.175-21.365-5.175-21.365-.36-2.348-2.593-6.65-8.6-6.65a1.5 1.5 0 1 0 0 3c4.856 0 5.575 3.73 5.64 4.143l4.767 19.7H55.02c-.445-3.557-2.453-6.628-5.305-8.522-.897.38-1.53 1.27-1.53 2.303 0 .088-.015.17-.026.256 2 1.358 3.415 3.5 3.83 5.965.082.488.135.987.135 1.5s-.053 1.012-.135 1.5c-.716 4.27-4.42 7.53-8.896 7.53s-8.18-3.26-8.896-7.53c-.082-.488-.135-.988-.135-1.5s.053-1.012.135-1.5c.147-.88.427-1.712.808-2.484-1.034-.077-1.852-.932-1.852-1.984a.74.74 0 0 0-.192-.488 11.95 11.95 0 0 0-1.795 4.957h-1.82c-.74-5.927-5.802-10.53-11.927-10.53s-11.185 4.6-11.927 10.528H3.42l4.767-19.7C8.25 6.73 8.97 3 13.826 3a1.5 1.5 0 1 0 0-3c-6.006 0-8.238 4.303-8.6 6.65L.052 28.016c-.266 1.1.53 1.826 1.426 1.826.012 0 .023.004.036.004h3.982a11.96 11.96 0 0 0 .387 1.83c.06-.106.102-.224.102-.354a2 2 0 0 1 2-2 1.98 1.98 0 0 1 .478.062c-.043-.343-.074-.688-.074-1.042 0-.512.053-1 .135-1.5.715-4.27 4.42-7.53 8.896-7.53s8.18 3.26 8.896 7.53c.082.5.135.988.135 1.5s-.053 1.012-.135 1.5c-.715 4.272-4.42 7.53-8.896 7.53a8.96 8.96 0 0 1-5.386-1.794 1.98 1.98 0 0 1-1.299.491.75.75 0 0 0-.749.748 1.99 1.99 0 0 1-.176.812c2.075 1.708 4.722 2.743 7.614 2.743 6.125 0 11.185-4.604 11.927-10.53h1.814c.742 5.926 5.802 10.53 11.927 10.53s11.186-4.604 11.927-10.53H59c.012 0 .023-.005.036-.005.895.002 1.692-.715 1.426-1.824z" fill="#d22856"/><path d="M50.686 16.125a4.5 4.5 0 0 1-4.499-4.499 4.5 4.5 0 0 1-4.499 4.499 4.5 4.5 0 0 1 4.499 4.499 4.5 4.5 0 0 1 4.499-4.499zm-12.782 3.5a2.75 2.75 0 0 1-2.749-2.749 2.75 2.75 0 0 1-2.749 2.749 2.75 2.75 0 0 1 2.749 2.749 2.75 2.75 0 0 1 2.749-2.749zm-27.17 14.446a2.75 2.75 0 0 1-2.749-2.75 2.75 2.75 0 0 1-2.749 2.75 2.75 2.75 0 0 1 2.749 2.748 2.75 2.75 0 0 1 2.749-2.748z" fill="#283645"/></svg>