<svg xmlns="http://www.w3.org/2000/svg" width="146.300003051758" height="40.375" fill="#fff"><path d="M71.874 18.66c0-.708.58-1.288 1.256-1.288h7.18c5.087 0 8.436 2.704 8.436 7.146v.064c0 4.86-4.057 7.373-8.854 7.373h-5.475v6.825c0 .708-.58 1.288-1.288 1.288-.676 0-1.256-.58-1.256-1.288V18.66zm8.114 10.98c3.734 0 6.182-1.996 6.182-4.96v-.063c0-3.22-2.414-4.894-6.053-4.894h-5.7v9.917h5.57zM93.603 18.5c0-.708.58-1.288 1.255-1.288a1.29 1.29 0 0 1 1.288 1.288v20.283a1.29 1.29 0 0 1-1.288 1.287c-.676 0-1.255-.58-1.255-1.287V18.5zm9.14.032A1.28 1.28 0 0 1 104 17.276h.354c.58 0 .935.3 1.288.74l13.684 17.45V18.468c0-.676.547-1.256 1.256-1.256.676 0 1.224.58 1.224 1.256v20.35c0 .676-.48 1.2-1.158 1.2h-.13c-.548 0-.935-.32-1.32-.772l-13.975-17.868v17.45c0 .676-.547 1.256-1.256 1.256-.676 0-1.223-.58-1.223-1.256l-.002-20.285zm25.43-.032c0-.708.58-1.288 1.257-1.288a1.29 1.29 0 0 1 1.286 1.288v12.33l12.848-13.168c.3-.257.58-.45.998-.45.676 0 1.225.612 1.225 1.256 0 .354-.162.644-.42.9l-7.984 7.92 8.564 10.56c.225.3.354.547.354.935 0 .676-.578 1.288-1.286 1.288-.483 0-.806-.258-1.03-.58l-8.402-10.463-4.863 4.86v4.894a1.29 1.29 0 0 1-1.286 1.288c-.677 0-1.257-.58-1.257-1.288l-.004-20.285zm-67.71 9.516c-.002-.01-5.175-21.365-5.175-21.365-.36-2.348-2.593-6.65-8.6-6.65a1.5 1.5 0 1 0 0 3c4.856 0 5.575 3.73 5.64 4.143l4.767 19.7H55.02c-.742-5.927-5.802-10.53-11.927-10.53s-11.186 4.604-11.927 10.53h-1.82c-.74-5.927-5.802-10.53-11.927-10.53S6.235 20.917 5.493 26.844H3.42l4.767-19.7C8.25 6.73 8.97 3 13.826 3a1.5 1.5 0 1 0 0-3c-6.006 0-8.238 4.303-8.6 6.65L.052 28.016c-.266 1.1.53 1.826 1.426 1.826.012 0 .023.004.036.004h3.982c.74 5.926 5.802 10.53 11.927 10.53s11.185-4.604 11.927-10.53h1.814c.742 5.926 5.802 10.53 11.927 10.53s11.186-4.604 11.927-10.53H59c.012 0 .023-.004.036-.004.895 0 1.692-.717 1.426-1.826zm-34.147 1.828c-.715 4.272-4.42 7.53-8.896 7.53s-8.18-3.26-8.896-7.53c-.082-.488-.135-.988-.135-1.5s.053-1 .135-1.5c.715-4.27 4.42-7.53 8.896-7.53s8.18 3.26 8.896 7.53c.082.5.135.988.135 1.5s-.053 1-.135 1.5zm25.675 0c-.716 4.272-4.42 7.53-8.896 7.53s-8.18-3.26-8.896-7.53c-.082-.488-.135-.988-.135-1.5s.053-1 .135-1.5c.716-4.27 4.42-7.53 8.896-7.53s8.18 3.26 8.896 7.53c.082.5.135.988.135 1.5s-.053 1-.135 1.5z"/></svg>