<svg xmlns="http://www.w3.org/2000/svg" width="42.084" height="47.041" fill="#a4c639"><path d="M34.144 14h-26.2l-.018.333v18.755c0 1.926 1.457 3.5 3.316 3.627v7.43c0 1.594 1.3 2.885 2.885 2.885s2.885-1.3 2.885-2.885v-7.42h8.058v7.42c0 1.594 1.3 2.885 2.885 2.885s2.886-1.3 2.886-2.885V36.72c1.858-.137 3.315-1.7 3.315-3.627l-.013-19.084zM2.886 15.68a2.886 2.886 0 012.886 2.885v12.378A2.887 2.887 0 010 30.942V18.564a2.885 2.885 0 012.886-2.885zm36.312 0a2.885 2.885 0 012.886 2.885v12.378a2.89 2.89 0 01-2.886 2.886 2.89 2.89 0 01-2.885-2.886v-12.38a2.89 2.89 0 012.885-2.885zM8.03 11.967h26.026c-.04-2.783-1.234-5.322-3.187-7.275L33.315.457a.31.31 0 00-.112-.415.31.31 0 00-.415.1L30.416 4.26c-2.052-1.853-6.25-3.4-9.374-3.4-3.016 0-7.322 1.547-9.374 3.4L9.296.152c-.083-.145-.27-.194-.415-.1s-.195.27-.1.415l2.445 4.235C9.266 6.646 8.07 9.185 8.03 11.968zm17.293-5.163c-.002-.805.664-1.46 1.488-1.462s1.494.658 1.5 1.454c.002.813-.664 1.468-1.5 1.47s-1.493-.65-1.496-1.454zm-11.143 0c-.001-.805.665-1.46 1.5-1.462s1.494.648 1.497 1.454c.002.813-.664 1.468-1.488 1.47s-1.495-.65-1.498-1.454z"/></svg>