<svg xmlns="http://www.w3.org/2000/svg" width="74.426002502441" height="22.858999252319"><path fill="#fff" d="M0 1.45C0 .74.58.16 1.256.16h7.18c5.087 0 8.436 2.704 8.436 7.147v.064c0 4.86-4.057 7.373-8.854 7.373H2.544v6.825c0 .708-.58 1.288-1.288 1.288C.58 22.86 0 22.28 0 21.57V1.45zm8.114 10.98c3.734 0 6.182-1.996 6.182-4.958v-.065c0-3.22-2.415-4.894-6.054-4.894H2.544v9.917h5.57zM21.73 1.288C21.73.58 22.308 0 22.983 0a1.29 1.29 0 0 1 1.288 1.288V21.57a1.29 1.29 0 0 1-1.288 1.288c-.676 0-1.255-.58-1.255-1.288V1.288zm9.14.032A1.28 1.28 0 0 1 32.126.064h.354c.58 0 .934.3 1.288.74l13.684 17.45V1.256A1.256 1.256 0 0 1 48.707 0c.676 0 1.223.58 1.223 1.256v20.348c0 .676-.482 1.19-1.158 1.19h-.13c-.548 0-.934-.322-1.32-.772L33.35 4.153v17.45c0 .676-.547 1.256-1.255 1.256-.677 0-1.224-.58-1.224-1.256V1.32zm25.43-.032C56.3.58 56.88 0 57.556 0a1.29 1.29 0 0 1 1.287 1.288v12.33L71.69.45c.3-.258.58-.45 1-.45.676 0 1.224.612 1.224 1.256 0 .354-.16.644-.42.9l-7.984 7.92 8.564 10.56c.225.3.354.547.354.934 0 .676-.58 1.288-1.287 1.288-.483 0-.806-.258-1.03-.58l-8.403-10.463-4.862 4.86v4.894a1.29 1.29 0 0 1-1.287 1.288c-.677 0-1.256-.58-1.256-1.288V1.288z"/></svg>