<svg xmlns="http://www.w3.org/2000/svg">
    <symbol id="logo-mobile" viewBox="0 0 74 23">
        <path d="M0 1.45C0 .74.58.16 1.256.16h7.18c5.087 0 8.436 2.704 8.436 7.147v.064c0 4.86-4.057 7.373-8.854 7.373H2.544v6.825c0 .708-.58 1.288-1.288 1.288C.58 22.86 0 22.28 0 21.57V1.45zm8.114 10.98c3.734 0 6.182-1.996 6.182-4.958v-.065c0-3.22-2.415-4.894-6.054-4.894H2.544v9.917h5.57zM21.73 1.288C21.73.58 22.308 0 22.983 0a1.29 1.29 0 0 1 1.288 1.288V21.57a1.29 1.29 0 0 1-1.288 1.288c-.676 0-1.255-.58-1.255-1.288V1.288zm9.14.032A1.28 1.28 0 0 1 32.126.064h.354c.58 0 .934.3 1.288.74l13.684 17.45V1.256A1.256 1.256 0 0 1 48.707 0c.676 0 1.223.58 1.223 1.256v20.348c0 .676-.482 1.19-1.158 1.19h-.13c-.548 0-.934-.322-1.32-.772L33.35 4.153v17.45c0 .676-.547 1.256-1.255 1.256-.677 0-1.224-.58-1.224-1.256V1.32zm25.43-.032C56.3.58 56.88 0 57.556 0a1.29 1.29 0 0 1 1.287 1.288v12.33L71.69.45c.3-.258.58-.45 1-.45.676 0 1.224.612 1.224 1.256 0 .354-.16.644-.42.9l-7.984 7.92 8.564 10.56c.225.3.354.547.354.934 0 .676-.58 1.288-1.287 1.288-.483 0-.806-.258-1.03-.58l-8.403-10.463-4.862 4.86v4.894a1.29 1.29 0 0 1-1.287 1.288c-.677 0-1.256-.58-1.256-1.288V1.288z"/>
    </symbol>
    <symbol id="logo-tablet" viewBox="0 0 147 40">
        <path d="M71.874 18.66c0-.708.58-1.288 1.256-1.288h7.18c5.087 0 8.436 2.704 8.436 7.146v.064c0 4.86-4.057 7.373-8.854 7.373h-5.475v6.825c0 .708-.58 1.288-1.288 1.288-.676 0-1.256-.58-1.256-1.288V18.66zm8.114 10.98c3.734 0 6.182-1.996 6.182-4.96v-.063c0-3.22-2.414-4.894-6.053-4.894h-5.7v9.917h5.57zM93.603 18.5c0-.708.58-1.288 1.255-1.288a1.29 1.29 0 0 1 1.288 1.288v20.283a1.29 1.29 0 0 1-1.288 1.287c-.676 0-1.255-.58-1.255-1.287V18.5zm9.14.032A1.28 1.28 0 0 1 104 17.276h.354c.58 0 .935.3 1.288.74l13.684 17.45V18.468c0-.676.547-1.256 1.256-1.256.676 0 1.224.58 1.224 1.256v20.35c0 .676-.48 1.2-1.158 1.2h-.13c-.548 0-.935-.32-1.32-.772l-13.975-17.868v17.45c0 .676-.547 1.256-1.256 1.256-.676 0-1.223-.58-1.223-1.256l-.002-20.285zm25.43-.032c0-.708.58-1.288 1.257-1.288a1.29 1.29 0 0 1 1.286 1.288v12.33l12.848-13.168c.3-.257.58-.45.998-.45.676 0 1.225.612 1.225 1.256 0 .354-.162.644-.42.9l-7.984 7.92 8.564 10.56c.225.3.354.547.354.935 0 .676-.578 1.288-1.286 1.288-.483 0-.806-.258-1.03-.58l-8.402-10.463-4.863 4.86v4.894a1.29 1.29 0 0 1-1.286 1.288c-.677 0-1.257-.58-1.257-1.288l-.004-20.285zm-67.71 9.516c-.002-.01-5.175-21.365-5.175-21.365-.36-2.348-2.593-6.65-8.6-6.65a1.5 1.5 0 1 0 0 3c4.856 0 5.575 3.73 5.64 4.143l4.767 19.7H55.02c-.742-5.927-5.802-10.53-11.927-10.53s-11.186 4.604-11.927 10.53h-1.82c-.74-5.927-5.802-10.53-11.927-10.53S6.235 20.917 5.493 26.844H3.42l4.767-19.7C8.25 6.73 8.97 3 13.826 3a1.5 1.5 0 1 0 0-3c-6.006 0-8.238 4.303-8.6 6.65L.052 28.016c-.266 1.1.53 1.826 1.426 1.826.012 0 .023.004.036.004h3.982c.74 5.926 5.802 10.53 11.927 10.53s11.185-4.604 11.927-10.53h1.814c.742 5.926 5.802 10.53 11.927 10.53s11.186-4.604 11.927-10.53H59c.012 0 .023-.004.036-.004.895 0 1.692-.717 1.426-1.826zm-34.147 1.828c-.715 4.272-4.42 7.53-8.896 7.53s-8.18-3.26-8.896-7.53c-.082-.488-.135-.988-.135-1.5s.053-1 .135-1.5c.715-4.27 4.42-7.53 8.896-7.53s8.18 3.26 8.896 7.53c.082.5.135.988.135 1.5s-.053 1-.135 1.5zm25.675 0c-.716 4.272-4.42 7.53-8.896 7.53s-8.18-3.26-8.896-7.53c-.082-.488-.135-.988-.135-1.5s.053-1 .135-1.5c.716-4.27 4.42-7.53 8.896-7.53s8.18 3.26 8.896 7.53c.082.5.135.988.135 1.5s-.053 1-.135 1.5z"/>
    </symbol>
    <symbol id="logo-desktop" viewBox="0 0 147 40">
        <g>
            <path d="M71.874 18.66c0-.708.58-1.288 1.256-1.288h7.18c5.087 0 8.436 2.704 8.436 7.146v.064c0 4.86-4.057 7.373-8.854 7.373h-5.475v6.825c0 .708-.58 1.288-1.288 1.288-.676 0-1.256-.58-1.256-1.288V18.66zm8.114 10.98c3.734 0 6.182-1.996 6.182-4.96v-.063c0-3.22-2.414-4.894-6.053-4.894h-5.7v9.917h5.57zM93.603 18.5c0-.708.58-1.288 1.255-1.288a1.29 1.29 0 0 1 1.288 1.288v20.283a1.29 1.29 0 0 1-1.288 1.287c-.676 0-1.255-.58-1.255-1.287V18.5zm9.14.032A1.28 1.28 0 0 1 104 17.276h.354c.58 0 .935.3 1.288.74l13.684 17.45V18.468c0-.676.547-1.256 1.256-1.256.676 0 1.224.58 1.224 1.256v20.35c0 .676-.48 1.2-1.158 1.2h-.13c-.548 0-.935-.32-1.32-.772l-13.975-17.868v17.45c0 .676-.547 1.256-1.256 1.256-.676 0-1.223-.58-1.223-1.256l-.002-20.285zm25.43-.032c0-.708.58-1.288 1.257-1.288a1.29 1.29 0 0 1 1.286 1.288v12.33l12.848-13.168c.3-.257.58-.45.998-.45.676 0 1.225.612 1.225 1.256 0 .354-.162.644-.42.9l-7.984 7.92 8.564 10.56c.225.3.354.547.354.935 0 .676-.578 1.288-1.286 1.288-.483 0-.806-.258-1.03-.58l-8.402-10.463-4.863 4.86v4.894a1.29 1.29 0 0 1-1.286 1.288c-.677 0-1.257-.58-1.257-1.288l-.004-20.285z" fill="#fff"/>
        </g>
        <g>
            <path fill="#d22856" d="M98.498 9.875c-2.002 0-3.623-1.623-3.623-3.624 0 2-1.623 3.624-3.625 3.624 2.002 0 3.625 1.623 3.625 3.624 0-2 1.62-3.624 3.623-3.624z"/><path d="M43.094 19.313l.73.033a2.49 2.49 0 0 0-2.136-1.22c-.877 0-1.614-.568-1.884-1.354a12.02 12.02 0 0 0-2.09.816c.062.017.122.038.188.038a2 2 0 0 1 2 2c0 .096-.015.188-.028.28a9 9 0 0 1 3.219-.593zm17.368 8.703c-.002-.01-5.175-21.365-5.175-21.365-.36-2.348-2.593-6.65-8.6-6.65a1.5 1.5 0 1 0 0 3c4.856 0 5.575 3.73 5.64 4.143l4.767 19.7H55.02c-.445-3.557-2.453-6.628-5.305-8.522-.897.38-1.53 1.27-1.53 2.303 0 .088-.015.17-.026.256 2 1.358 3.415 3.5 3.83 5.964.082.5.135.988.135 1.5s-.053 1.012-.135 1.5c-.716 4.272-4.42 7.53-8.896 7.53s-8.18-3.26-8.896-7.53c-.082-.488-.135-.988-.135-1.5s.053-1 .135-1.5a8.95 8.95 0 0 1 .808-2.483c-1.034-.078-1.852-.932-1.852-1.985 0-.2-.077-.357-.192-.5-.938 1.47-1.57 3.15-1.795 4.958h-1.82c-.74-5.927-5.802-10.53-11.927-10.53S6.235 20.917 5.493 26.844H3.42l4.767-19.7C8.25 6.73 8.97 3 13.826 3a1.5 1.5 0 1 0 0-3c-6.006 0-8.238 4.303-8.6 6.65L.052 28.016c-.266 1.1.53 1.826 1.426 1.826.012 0 .023.004.036.004h3.982a12.01 12.01 0 0 0 .387 1.83c.06-.106.102-.224.102-.354a2 2 0 0 1 2-2 1.98 1.98 0 0 1 .478.063c-.043-.343-.074-.688-.074-1.042 0-.512.053-1 .135-1.5.715-4.27 4.42-7.53 8.896-7.53s8.18 3.26 8.896 7.53c.082.5.135.988.135 1.5s-.053 1.012-.135 1.5c-.715 4.272-4.42 7.53-8.896 7.53a8.96 8.96 0 0 1-5.386-1.794 1.98 1.98 0 0 1-1.299.491.75.75 0 0 0-.749.748 1.98 1.98 0 0 1-.176.812c2.075 1.708 4.722 2.743 7.614 2.743 6.125 0 11.185-4.604 11.927-10.53h1.814c.742 5.926 5.802 10.53 11.927 10.53s11.186-4.604 11.927-10.53H59c.012 0 .023-.004.036-.004.895.001 1.692-.716 1.426-1.825z" fill="#fff"/>
        </g>
        <g>
            <path d="M50.686 16.125a4.5 4.5 0 0 1-4.499-4.499 4.5 4.5 0 0 1-4.499 4.499 4.5 4.5 0 0 1 4.499 4.499 4.5 4.5 0 0 1 4.499-4.499zm-12.782 3.5a2.75 2.75 0 0 1-2.749-2.749 2.75 2.75 0 0 1-2.749 2.749 2.75 2.75 0 0 1 2.749 2.749 2.75 2.75 0 0 1 2.749-2.749zm-27.17 14.446a2.75 2.75 0 0 1-2.749-2.75 2.75 2.75 0 0 1-2.749 2.75 2.75 2.75 0 0 1 2.749 2.748 2.75 2.75 0 0 1 2.749-2.748z" fill="#d22856"/>
        </g>
    </symbol>
    <symbol id="close-button" viewBox="0 0 24 23">
        <path d="M15.087 11.933l8.56-8.56a.75.75 0 0 0 0-1.061L21.554.22c-.14-.14-.33-.22-.53-.22a.74.74 0 0 0-.529.22l-8.56 8.56L3.373.22c-.282-.282-.78-.282-1.06 0L.22 2.313a.75.75 0 0 0 0 1.061l8.56 8.56-8.56 8.56a.75.75 0 0 0 0 1.062l2.093 2.094c.14.142.33.22.53.22s.4-.078.53-.22l8.56-8.56 8.56 8.56c.14.142.332.22.53.22s.4-.078.53-.22l2.093-2.094a.75.75 0 0 0 0-1.062l-8.56-8.56z"/>
    </symbol>
    <symbol id="icon-yes" viewBox="-82.357 4.875 21.698 16.09">
        <path d="M-60.953 5.167a1 1 0 0 0-1.414 0L-75.75 18.55l-4.9-4.9a1 1 0 0 0-1.414 1.414l5.607 5.607c.195.195.45.293.707.293s.512-.098.707-.293l14.1-14c.39-.48.39-1.114 0-1.505z"/>
    </symbol>
    <symbol id="icon-no" viewBox="0 0 27 26">
        <path d="M15.497 13.376L26.312 2.562a1.5 1.5 0 0 0 0-2.121 1.5 1.5 0 0 0-2.121 0L13.376 11.255 2.562.44a1.5 1.5 0 0 0-2.121 0 1.5 1.5 0 0 0 0 2.121l10.814 10.815L.44 24.2a1.5 1.5 0 0 0 0 2.121c.293.293.677.44 1.06.44s.768-.146 1.06-.44l10.815-10.814L24.2 26.312c.293.293.677.44 1.06.44s.768-.146 1.06-.44a1.5 1.5 0 0 0 0-2.121L15.497 13.376z"/>
    </symbol>
    <symbol id="icon-heart" viewBox="0 0 13 12">
        <path d="M528.174 485.055c-.212 0-.412-.09-.552-.25l-4.862-5.572c-.53-.675-.82-1.518-.82-2.373 0-2.095 1.704-3.8 3.8-3.8a3.81 3.81 0 0 1 2.484.898c.696-.578 1.56-.898 2.463-.898 2.095 0 3.8 1.704 3.8 3.8 0 .91-.318 1.754-.896 2.38l-4.86 5.56c-.14.16-.342.252-.554.252h0zm-4.245-6.706l4.243 4.858 4.323-4.944c.34-.37.52-.86.52-1.4 0-1.285-1.045-2.33-2.33-2.33-.73 0-1.42.344-1.9.943a.76.76 0 0 1-.585.275c-.227-.003-.44-.11-.575-.294-.44-.587-1.13-.925-1.887-.925-1.285 0-2.33 1.046-2.33 2.33 0 .678.275 1.17.507 1.467.004.006.01.012.014.02z"/>
    <symbol>
    <symbol id="icon-crop" viewBox="0 0 48 48">
        <path fill="none" d="M0 0h48v48H0V0z"/><path d="M34 30h4V14c0-2.21-1.79-4-4-4H18v4h16v16zm-20 4V2h-4v8H2v4h8v20c0 2.21 1.79 4 4 4h20v8h4v-8h8v-4H14z"/></symbol>
    <symbol id="icon-fill" viewBox="0 0 48 48">
        <path fill="none" d="M0 0h48v48H0V0z"/><path d="M33.12 17.88L15.24 0l-2.83 2.83 4.76 4.76L6.88 17.88a3 3 0 000 4.24l11 11c.58.59 1.35.88 2.12.88s1.54-.29 2.12-.88l11-11a3 3 0 000-4.24zM10.41 20L20 10.42 29.59 20H10.41zM38 23s-4 4.33-4 7c0 2.21 1.79 4 4 4s4-1.79 4-4c0-2.67-4-7-4-7zM0 40h48v3H0z"/></symbol>
    <symbol id="icon-contrast" viewBox="-35.422 -7.96 31.92 31.92">>
        <path  d="M-19.462-3.96c6.595 0 11.96 5.365 11.96 11.96s-5.365 11.96-11.96 11.96-11.96-5.365-11.96-11.96 5.365-11.96 11.96-11.96m0-4c-8.814 0-15.96 7.145-15.96 15.96 0 8.813 7.146 15.96 15.96 15.96S-3.502 16.813-3.502 8c0-8.815-7.146-15.96-15.96-15.96z"/><path d="M-19.462 16.331a8.519 8.519 0 008.52-8.52 8.518 8.518 0 00-8.52-8.519"/>
    </symbol>
    <symbol id="footer-logo" viewBox="0 0 147 40">
        <g class="logotext">
            <path d="M71.874 18.66c0-.708.58-1.288 1.256-1.288h7.18c5.087 0 8.436 2.704 8.436 7.146v.063c0 4.86-4.057 7.373-8.854 7.373h-5.475v6.825a1.29 1.29 0 0 1-1.289 1.287c-.676 0-1.256-.58-1.256-1.287l.002-20.12zm8.114 10.98c3.734 0 6.182-1.996 6.182-4.96v-.062c0-3.22-2.414-4.894-6.053-4.894h-5.7v9.917h5.57zM93.603 18.5c0-.708.58-1.288 1.255-1.288a1.29 1.29 0 0 1 1.288 1.288v20.283a1.29 1.29 0 0 1-1.288 1.287c-.676 0-1.255-.58-1.255-1.287V18.5zm9.14.032A1.28 1.28 0 0 1 104 17.276h.354c.58 0 .935.3 1.288.74l13.684 17.45V18.468c0-.676.547-1.256 1.256-1.256.676 0 1.225.58 1.225 1.256v20.35c0 .677-.48 1.2-1.158 1.2h-.13c-.548 0-.936-.32-1.318-.772L105.225 21.38v17.45a1.26 1.26 0 0 1-1.257 1.257c-.676 0-1.223-.58-1.223-1.257l-.002-20.285zm25.43-.032c0-.708.58-1.288 1.257-1.288a1.29 1.29 0 0 1 1.286 1.288v12.33l12.848-13.16c.3-.257.58-.45.998-.45.676 0 1.225.612 1.225 1.256 0 .354-.162.644-.42.9l-7.984 7.92 8.564 10.56c.225.3.354.547.354.936 0 .676-.577 1.288-1.285 1.288-.482 0-.807-.26-1.03-.58l-8.4-10.464-4.863 4.86v4.895a1.29 1.29 0 0 1-1.286 1.288c-.677 0-1.257-.58-1.257-1.288l-.006-20.294z"/>
        </g>
        <g class="logoglasses">
            <path fill="#d22856" d="M60.462 28.016c-.002-.01-5.175-21.365-5.175-21.365-.36-2.348-2.593-6.65-8.6-6.65a1.5 1.5 0 1 0 0 3c4.856 0 5.575 3.73 5.64 4.143l4.767 19.7H55.02c-.742-5.927-5.802-10.53-11.927-10.53s-11.186 4.604-11.927 10.53h-1.82c-.74-5.927-5.802-10.53-11.927-10.53S6.235 20.917 5.493 26.844H3.42l4.767-19.7C8.25 6.73 8.97 3 13.826 3a1.5 1.5 0 1 0 0-3c-6.006 0-8.238 4.303-8.6 6.65L.052 28.016c-.266 1.11.53 1.826 1.426 1.826.012 0 .023.004.036.004h3.982c.74 5.926 5.802 10.53 11.927 10.53s11.185-4.604 11.927-10.53h1.814c.742 5.926 5.802 10.53 11.927 10.53s11.186-4.604 11.927-10.53H59c.012 0 .023-.004.036-.004.895 0 1.692-.717 1.426-1.826zm-34.147 1.828c-.715 4.272-4.42 7.53-8.896 7.53s-8.18-3.26-8.896-7.53c-.082-.488-.135-.988-.135-1.5s.053-1.01.135-1.5c.715-4.27 4.42-7.53 8.896-7.53s8.18 3.26 8.896 7.53c.082.49.135.988.135 1.5s-.053 1.01-.135 1.5zm25.675 0c-.716 4.272-4.42 7.53-8.896 7.53s-8.18-3.26-8.896-7.53c-.082-.488-.135-.988-.135-1.5s.053-1.01.135-1.5c.716-4.27 4.42-7.53 8.896-7.53s8.18 3.26 8.896 7.53c.082.49.135.988.135 1.5s-.053 1.01-.135 1.5z"/>
        </g>
    </symbol>
    <symbol id="htmlacademy" viewBox="5 5 45 45">
        <path d="M30.2 5H30L10.3 7.1v36.2L30 55l19.7-11.7V7.1L30.2 5zm17 36.8L30 52 12.8 41.8V27l17.1 10.2V39l-11.7-7v1.8L30 40.9v1.9l-11.8-7v1.8l11.8 7 11.9-7.1v-7.6l5.3-3.2v15.1zm-.1-17l-4.7 2.8-2.2 1.3-10.3-6.1v1.8l8.8 5.3h-.1l-.2.1-1.3.7-7.3-4.3v1.8l5.8 3.4-1.4.9-4.3-2.6v1.8l2.9 1.7-2.9 1.7-17-10.1 17-10.2 17.2 10zm.1-1.8L29.9 12.8 12.8 23V9.4L30 7.6l17.2 1.8V23z"/>
    </symbol>
</svg>